<svg width="36" height="28" viewBox="0 0 36 28" fill="none" xmlns="http://www.w3.org/2000/svg">
<path d="M4.5 3.82646C3.88125 3.82646 3.375 4.32961 3.375 4.94456V6.48893L15.5039 16.3841C16.9594 17.5721 19.0477 17.5721 20.5031 16.3841L32.625 6.48893V4.94456C32.625 4.32961 32.1188 3.82646 31.5 3.82646H4.5ZM3.375 10.8286V22.8341C3.375 23.4491 3.88125 23.9522 4.5 23.9522H31.5C32.1188 23.9522 32.625 23.4491 32.625 22.8341V10.8286L22.6406 18.9767C19.9406 21.1779 16.0523 21.1779 13.3594 18.9767L3.375 10.8286ZM0 4.94456C0 2.47776 2.01797 0.472168 4.5 0.472168H31.5C33.982 0.472168 36 2.47776 36 4.94456V22.8341C36 25.3009 33.982 27.3065 31.5 27.3065H4.5C2.01797 27.3065 0 25.3009 0 22.8341V4.94456Z" fill="white"/>
</svg>
